<svg width="676" height="768" viewBox="0 0 676 768" fill="none" xmlns="http://www.w3.org/2000/svg">
<path d="M415.925 124.656C505.9 90.4908 593.595 -3.76692 641.486 0.450999C689.357 5.44573 697.819 108.478 731.8 189.993C765.78 271.509 825.279 331.509 841.972 413.339C858.664 495.17 831.383 599.37 768.436 672.212C704.718 745.155 604.564 786.838 531.178 758.841C457.396 731.283 410.759 634.382 330.518 604.18C250.277 573.979 135.287 610.238 69.9822 581.576C5.07295 552.476 -11.2967 458.216 8.33053 367.786C28.333 277.695 84.7076 191.773 158.835 161.606C233.338 131.778 325.574 158.483 415.925 124.656Z" fill="#FF6B35"/>
</svg>
